Coordinates
version=1
nRows=18
nColumns=33
inDegrees=yes

Units are S.I. units (second, meters, Newtons, ...)
Angles are in degrees.

endheader
time	ground_thorax_rot_x	ground_thorax_rot_y	ground_thorax_rot_z	ground_thorax_tx	ground_thorax_ty	ground_thorax_tz	clav_prot_r	clav_elev_r	scapula_abduction_r	scapula_elevation_r	scapula_upward_rot_r	scapula_winging_r	shoulder_elv_r	plane_of_elev_r	axial_rot_r	elbow_flexion_r	pro_sup_r	wrist_flex_r	wrist_dev_r	clav_prot_l	clav_elev_l	scapula_abduction_l	scapula_elevation_l	scapula_upward_rot_l	scapula_winging_l	shoulder_elv_l	plane_of_elev_l	axial_rot_l	elbow_flexion_l	pro_sup_l	wrist_flex_l	wrist_dev_l	
0.9700	2.668550	-1.816743	0.928728	-0.151610	0.988982	0.005852	-6.211113	-1.586719	-6.973532	4.688635	2.635794	-0.457996	46.591093	-27.538864	29.063223	78.342504	-14.893280	7.136681	-0.883486	-8.287004	-3.629201	11.914350	-4.522551	-4.861626	-2.889080	46.500049	-35.300186	-16.635635	75.535606	11.356268	-1.995417	-17.490639	
0.9800	2.639008	-1.772448	0.917730	-0.151179	0.989043	0.005779	-6.102448	-1.819246	-6.828146	4.572080	2.395533	-0.396014	46.700289	-26.503628	28.550959	77.724341	-15.673760	5.769791	-0.332838	-8.178504	-3.757838	11.728620	-4.449993	-4.971143	-2.905415	46.563179	-34.516038	-16.086989	75.760167	11.153655	-0.700959	-15.877116	
0.9900	2.612346	-1.734456	0.886208	-0.150781	0.989073	0.005701	-5.966887	-2.060516	-6.632858	4.448792	2.153472	-0.341956	46.802430	-25.443227	28.016822	77.010165	-16.432346	4.449511	0.192643	-8.075780	-3.892663	11.542753	-4.361691	-5.056622	-2.918105	46.577682	-33.633292	-15.483597	75.912647	10.955924	0.680707	-14.131146	
1.0000	2.589670	-1.699585	0.839676	-0.150414	0.989078	0.005622	-5.804771	-2.312681	-6.388950	4.317293	1.908194	-0.294869	46.905243	-24.372176	27.469153	76.207227	-17.165601	3.180432	0.698558	-7.973718	-4.042141	11.347973	-4.252230	-5.123868	-2.928800	46.557382	-32.663861	-14.844184	75.973085	10.752379	2.124291	-12.302169	
1.0100	2.576272	-1.665815	0.796640	-0.150083	0.989057	0.005537	-5.615291	-2.567152	-6.097094	4.185063	1.660836	-0.256664	47.016040	-23.305456	26.919546	75.316414	-17.863064	1.970035	1.184251	-7.866648	-4.203797	11.136621	-4.125824	-5.177049	-2.936770	46.503326	-31.620114	-14.190594	75.919863	10.545077	3.610605	-10.415459	
1.0200	2.565382	-1.637207	0.745423	-0.149784	0.989015	0.005449	-5.401228	-2.830680	-5.763553	4.048310	1.405138	-0.223981	47.130307	-22.228201	26.357004	74.333500	-18.522282	0.808954	1.658777	-7.753758	-4.382922	10.908095	-3.979806	-5.221696	-2.944093	46.424019	-30.497685	-13.509423	75.733183	10.323375	5.115496	-8.496403	
1.0300	2.556674	-1.614335	0.688581	-0.149526	0.988948	0.005355	-5.160966	-3.101044	-5.391926	3.913698	1.129539	-0.194554	47.259454	-21.132938	25.778992	73.263694	-19.145340	-0.330381	2.136174	-7.628726	-4.580299	10.654012	-3.816598	-5.265064	-2.951260	46.328440	-29.302907	-12.801891	75.408040	10.087470	6.651515	-6.529330	
1.0400	2.546632	-1.600500	0.611081	-0.149302	0.988860	0.005252	-4.897356	-3.386092	-4.979166	3.768930	0.846692	-0.170448	47.394652	-20.022824	25.180847	72.101405	-19.693059	-1.412165	2.597264	-7.494172	-4.802138	10.374860	-3.627189	-5.299400	-2.958325	46.217333	-28.039893	-12.069011	74.923970	9.843249	8.155269	-4.585911	
1.0500	2.536644	-1.595377	0.508165	-0.149105	0.988767	0.005141	-4.617259	-3.691968	-4.528375	3.600403	0.576200	-0.152818	47.524496	-18.914732	24.563476	70.849486	-20.146434	-2.433423	3.028134	-7.349058	-5.061020	10.064256	-3.397246	-5.318235	-2.966897	46.098470	-26.737055	-11.329981	74.275237	9.605113	9.562170	-2.733673	
1.0600	2.522090	-1.604551	0.370111	-0.148946	0.988633	0.005014	-4.315692	-4.005831	-4.033387	3.420019	0.318057	-0.146802	47.638256	-17.786315	23.909852	69.505749	-20.497701	-3.416936	3.440836	-7.191012	-5.339997	9.721517	-3.142323	-5.320514	-2.972370	45.966139	-25.377236	-10.567875	73.460801	9.370291	10.886334	-0.954831	
1.0700	2.504693	-1.624165	0.212938	-0.148821	0.988496	0.004874	-3.996920	-4.339897	-3.498450	3.215049	0.075789	-0.149029	47.741867	-16.669119	23.233048	68.075984	-20.733705	-4.358406	3.826859	-7.016899	-5.655283	9.338220	-2.847508	-5.306528	-2.978044	45.838764	-24.006396	-9.809621	72.480790	9.157883	12.101883	0.713569	
1.0800	2.480344	-1.656884	0.056701	-0.148757	0.988316	0.004718	-3.649135	-4.669202	-2.918918	3.018720	-0.175789	-0.163310	47.837934	-15.538571	22.522665	66.562441	-20.851328	-5.304333	4.218622	-6.817633	-5.975499	8.908639	-2.546349	-5.285847	-2.976094	45.717198	-22.611525	-9.050428	71.336913	8.964223	13.276193	2.337264	
1.0900	2.450883	-1.695421	-0.080245	-0.148724	0.988166	0.004549	-3.288512	-5.021445	-2.312749	2.800454	-0.424533	-0.180939	47.928229	-14.446312	21.799482	64.966228	-20.833054	-6.208761	4.588637	-6.598993	-6.329072	8.436695	-2.211023	-5.255775	-2.974771	45.620935	-21.254084	-8.327723	70.028863	8.813501	14.333027	3.820919	
1.1000	2.411306	-1.741532	-0.175198	-0.148751	0.987974	0.004358	-2.899288	-5.357084	-1.678258	2.613313	-0.711601	-0.205886	48.018398	-13.344108	21.043958	63.289133	-20.701587	-7.146475	4.995496	-6.350690	-6.666280	7.921349	-1.895425	-5.233838	-2.963365	45.542585	-19.894477	-7.623345	68.569743	8.686274	15.391182	5.291957	
1.1100	2.362764	-1.787429	-0.223563	-0.148793	0.987822	0.004148	-2.504676	-5.713340	-1.045089	2.418447	-1.026369	-0.223225	48.115083	-12.275569	20.277857	61.534250	-20.476768	-8.068690	5.410681	-6.084879	-7.024915	7.376493	-1.563212	-5.218394	-2.954997	45.502535	-18.589984	-6.961297	66.974220	8.602472	16.385798	6.674220	
1.1200	2.306980	-1.833547	-0.214147	-0.148867	0.987681	0.003924	-2.102013	-6.071480	-0.412118	2.233049	-1.368621	-0.238157	48.217357	-11.232420	19.528164	59.713600	-20.182412	-8.975039	5.841232	-5.795754	-7.385927	6.796241	-1.232696	-5.210220	-2.943193	45.501590	-17.342396	-6.365375	65.245258	8.560471	17.328383	7.975587	
1.1300	2.245852	-1.876029	-0.167228	-0.148943	0.987567	0.003686	-1.706370	-6.440882	0.201458	2.044327	-1.728483	-0.246533	48.320049	-10.207511	18.776480	57.816919	-19.834724	-9.832614	6.280722	-5.491955	-7.757230	6.194215	-0.896687	-5.210851	-2.930993	45.535444	-16.142641	-5.819949	63.388951	8.563003	18.164666	9.133101	
1.1400	2.180759	-1.916407	-0.088680	-0.149049	0.987434	0.003435	-1.307415	-6.798675	0.810112	1.872636	-2.103824	-0.257743	48.424683	-9.181309	18.038929	55.857611	-19.456592	-10.656656	6.746367	-5.166084	-8.117906	5.561120	-0.574277	-5.218486	-2.910404	45.596483	-14.969540	-5.322793	61.410750	8.596356	18.940100	10.190604	
